{
	"asset":{
		"version":"2.0",
		"generator":"Maxon Cinema 4D 2025.0.1 (#200000219)"
	},
	"scenes":[{
		"nodes":[0]
	}],
	"nodes":[{
		"name":"CentroFlor",
		"mesh":0
	}],
	"meshes":[{
		"name":"CentroFlor",
		"primitives":[{
			"attributes":{
				"POSITION":1
			},
			"indices":0
		}]
	}],
	"accessors":[{
		"bufferView":0,
		"type":"SCALAR",
		"componentType":5123,
		"count":6522,
		"byteOffset":0,
		"min":[0],
		"max":[1088]
	},
	{
		"bufferView":1,
		"type":"VEC3",
		"componentType":5126,
		"count":1089,
		"byteOffset":0,
		"min":[-254.74105834960938,
		-162.43212890625,
		-253.54791259765626],
		"max":[254.74105834960938,
		97.5133056640625,
		253.54791259765626]
	}],
	"bufferViews":[{
		"buffer":0,
		"target":34963,
		"byteOffset":0,
		"byteLength":13044
	},
	{
		"buffer":0,
		"target":34962,
		"byteOffset":13044,
		"byteLength":13068
	}],
	"buffers":[{
		"uri":"data:application/octet-stream;base64,",
		"byteLength":26112
	}]
}