{
	"asset":{
		"version":"2.0",
		"generator":"Maxon Cinema 4D 2025.0.1 (#200000219)"
	},
	"scenes":[{
		"nodes":[0,
		1,
		2,
		3,
		4,
		5,
		6,
		7]
	}],
	"nodes":[{
		"translation":[159.3728790283203,
		-2490.304443359375,
		-6094.53173828125],
		"name":"PETALO1",
		"rotation":[0.0,
		0.0,
		0.0,
		-1.0],
		"scale":[1.0,
		1.0,
		1.0],
		"children":[8]
	},
	{
		"translation":[159.3728790283203,
		-2490.304443359375,
		-6094.53173828125],
		"name":"PETALO2",
		"rotation":[0.0,
		0.0,
		0.0,
		-1.0],
		"scale":[1.0,
		1.0,
		1.0],
		"children":[9]
	},
	{
		"translation":[191.98385620117188,
		-2490.304443359375,
		-6094.53173828125],
		"name":"PETALO3",
		"rotation":[0.0,
		0.0,
		0.0,
		-1.0],
		"scale":[1.0,
		1.0,
		1.0],
		"children":[10]
	},
	{
		"translation":[159.3728790283203,
		-2490.304443359375,
		-6094.53173828125],
		"name":"PETALO4",
		"rotation":[0.0,
		0.0,
		0.0,
		-1.0],
		"scale":[1.0,
		1.0,
		1.0],
		"children":[11]
	},
	{
		"translation":[159.3728790283203,
		-2490.304443359375,
		-6094.53173828125],
		"name":"PETALO5",
		"rotation":[0.0,
		0.0,
		0.0,
		-1.0],
		"scale":[1.0,
		1.0,
		1.0],
		"children":[12]
	},
	{
		"translation":[159.3728790283203,
		-2490.304443359375,
		-6094.53173828125],
		"name":"PETALO6",
		"rotation":[0.0,
		0.0,
		0.0,
		-1.0],
		"scale":[1.0,
		1.0,
		1.0],
		"children":[13]
	},
	{
		"translation":[159.3728790283203,
		-2490.304443359375,
		-6094.53173828125],
		"name":"PETALO7",
		"rotation":[0.0,
		0.0,
		0.0,
		-1.0],
		"scale":[1.0,
		1.0,
		1.0],
		"children":[14]
	},
	{
		"translation":[159.3728790283203,
		-2490.304443359375,
		-6094.53173828125],
		"name":"PETALO8",
		"rotation":[0.0,
		0.0,
		0.0,
		-1.0],
		"scale":[1.0,
		1.0,
		1.0],
		"children":[15]
	},
	{
		"translation":[16.779090881347658,
		16.034528732299806,
		3.979039320256561e-12],
		"name":"Bisel",
		"rotation":[0.0,
		0.0,
		0.0,
		-1.0],
		"scale":[1.0,
		1.0,
		1.0],
		"children":[16]
	},
	{
		"translation":[16.779090881347658,
		16.034528732299806,
		3.979039320256561e-12],
		"name":"Bisel",
		"rotation":[0.0,
		0.0,
		0.0,
		-1.0],
		"scale":[1.0,
		1.0,
		1.0],
		"children":[17]
	},
	{
		"translation":[16.779090881347658,
		16.034528732299806,
		3.979039320256561e-12],
		"name":"Bisel",
		"rotation":[0.0,
		0.0,
		0.0,
		-1.0],
		"scale":[1.0,
		1.0,
		1.0],
		"children":[18]
	},
	{
		"name":"Bisel",
		"children":[19]
	},
	{
		"name":"Bisel",
		"children":[20]
	},
	{
		"name":"Bisel",
		"children":[21]
	},
	{
		"translation":[16.779090881347658,
		16.034528732299806,
		3.979039320256561e-12],
		"name":"Bisel",
		"rotation":[0.0,
		0.0,
		0.0,
		-1.0],
		"scale":[1.0,
		1.0,
		1.0],
		"children":[22]
	},
	{
		"translation":[16.779090881347658,
		16.034528732299806,
		3.979039320256561e-12],
		"name":"Bisel",
		"rotation":[0.0,
		0.0,
		0.0,
		-1.0],
		"scale":[1.0,
		1.0,
		1.0],
		"children":[23]
	},
	{
		"name":"Espesar",
		"children":[24]
	},
	{
		"name":"Espesar",
		"children":[25]
	},
	{
		"name":"Espesar",
		"children":[26]
	},
	{
		"name":"Espesar",
		"children":[27]
	},
	{
		"name":"Espesar",
		"children":[28]
	},
	{
		"name":"Espesar",
		"children":[29]
	},
	{
		"name":"Espesar",
		"children":[30]
	},
	{
		"name":"Espesar",
		"children":[31]
	},
	{
		"translation":[294.4831237792969,
		2615.232177734375,
		6160.51318359375],
		"name":"Petalo3",
		"rotation":[0.34101158380508425,
		0.6496920585632324,
		-0.5973242521286011,
		-0.3237515389919281],
		"scale":[1.0,
		1.0,
		1.0],
		"children":[32]
	},
	{
		"translation":[76.12332153320313,
		2629.60302734375,
		6436.33349609375],
		"name":"Petalo3",
		"mesh":0,
		"rotation":[0.5372093319892883,
		0.7134109139442444,
		-0.44967883825302126,
		0.01549143623560667],
		"scale":[1.0,
		1.0,
		1.0]
	},
	{
		"translation":[-291.6920471191406,
		2593.44775390625,
		6540.21875],
		"name":"Petalo3",
		"mesh":1,
		"rotation":[0.6084620952606201,
		0.7296450138092041,
		-0.2179645448923111,
		0.22334618866443635],
		"scale":[1.0,
		1.0,
		1.0]
	},
	{
		"translation":[185.2005157470703,
		2651.67236328125,
		5803.09765625],
		"name":"Petalo3",
		"rotation":[0.09228899329900742,
		0.4948403537273407,
		-0.6667116284370422,
		-0.5496465563774109],
		"scale":[1.0,
		1.0,
		1.0],
		"children":[33]
	},
	{
		"translation":[-109.8180160522461,
		2645.577880859375,
		5614.92529296875],
		"name":"Petalo3",
		"rotation":[-0.20224221050739289,
		0.23025348782539369,
		-0.6345081329345703,
		-0.7095637917518616],
		"scale":[1.0,
		1.0,
		1.0],
		"children":[34]
	},
	{
		"translation":[-481.1884460449219,
		2653.122314453125,
		5676.5810546875],
		"name":"Petalo3",
		"rotation":[0.41547319293022158,
		0.05403225123882294,
		0.5055572986602783,
		0.7542375922203064],
		"scale":[1.0,
		1.0,
		1.0],
		"children":[35]
	},
	{
		"translation":[-720.5877685546875,
		2624.70849609375,
		6003.15966796875],
		"name":"Petalo3",
		"rotation":[0.5441119074821472,
		0.3204265832901001,
		0.29850074648857119,
		0.7156579494476318],
		"scale":[1.0,
		1.0,
		1.0],
		"children":[36]
	},
	{
		"translation":[-570.2406005859375,
		2616.741943359375,
		6340.06787109375],
		"name":"Petalo3",
		"rotation":[0.669305145740509,
		0.5090340375900269,
		0.06296608597040177,
		0.5375409126281738],
		"scale":[1.0,
		1.0,
		1.0],
		"children":[37]
	},
	{
		"name":"Petalo3",
		"mesh":2
	},
	{
		"name":"Petalo3",
		"mesh":3
	},
	{
		"name":"Petalo3",
		"mesh":4
	},
	{
		"name":"Petalo3",
		"mesh":5
	},
	{
		"name":"Petalo3",
		"mesh":6
	},
	{
		"name":"Petalo3",
		"mesh":7
	}],
	"meshes":[{
		"name":"Petalo3",
		"primitives":[{
			"attributes":{
				"POSITION":1,
				"NORMAL":2,
				"TEXCOORD_0":3
			},
			"indices":0
		}]
	},
	{
		"name":"Petalo3",
		"primitives":[{
			"attributes":{
				"POSITION":5,
				"NORMAL":6,
				"TEXCOORD_0":7
			},
			"indices":4
		}]
	},
	{
		"name":"Petalo3",
		"primitives":[{
			"attributes":{
				"POSITION":9,
				"NORMAL":10,
				"TEXCOORD_0":11
			},
			"indices":8
		}]
	},
	{
		"name":"Petalo3",
		"primitives":[{
			"attributes":{
				"POSITION":13,
				"NORMAL":14,
				"TEXCOORD_0":15
			},
			"indices":12
		}]
	},
	{
		"name":"Petalo3",
		"primitives":[{
			"attributes":{
				"POSITION":17,
				"NORMAL":18,
				"TEXCOORD_0":19
			},
			"indices":16
		}]
	},
	{
		"name":"Petalo3",
		"primitives":[{
			"attributes":{
				"POSITION":21,
				"NORMAL":22,
				"TEXCOORD_0":23
			},
			"indices":20
		}]
	},
	{
		"name":"Petalo3",
		"primitives":[{
			"attributes":{
				"POSITION":25,
				"NORMAL":26,
				"TEXCOORD_0":27
			},
			"indices":24
		}]
	},
	{
		"name":"Petalo3",
		"primitives":[{
			"attributes":{
				"POSITION":29,
				"NORMAL":30,
				"TEXCOORD_0":31
			},
			"indices":28
		}]
	}],
	"accessors":[{
		"bufferView":0,
		"type":"SCALAR",
		"componentType":5123,
		"count":6300,
		"byteOffset":0,
		"min":[0],
		"max":[6299]
	},
	{
		"bufferView":1,
		"type":"VEC3",
		"componentType":5126,
		"count":6300,
		"byteOffset":0,
		"min":[-252.91554260253907,
		-210.99960327148438,
		-520.9231567382813],
		"max":[18.87588119506836,
		294.4089660644531,
		393.939453125]
	},
	{
		"bufferView":1,
		"type":"VEC3",
		"componentType":5126,
		"count":6300,
		"byteOffset":12,
		"min":[-0.9995232224464417,
		-0.9997949600219727,
		-0.9922656416893005],
		"max":[0.9996342062950134,
		0.9987273216247559,
		0.994236171245575]
	},
	{
		"bufferView":1,
		"type":"VEC2",
		"componentType":5126,
		"count":6300,
		"byteOffset":24,
		"min":[0.0,
		0.0],
		"max":[1.0,
		1.0]
	},
	{
		"bufferView":2,
		"type":"SCALAR",
		"componentType":5123,
		"count":6300,
		"byteOffset":0,
		"min":[0],
		"max":[6299]
	},
	{
		"bufferView":3,
		"type":"VEC3",
		"componentType":5126,
		"count":6300,
		"byteOffset":0,
		"min":[-252.91554260253907,
		-210.99960327148438,
		-520.9231567382813],
		"max":[18.87588119506836,
		294.4089660644531,
		393.939453125]
	},
	{
		"bufferView":3,
		"type":"VEC3",
		"componentType":5126,
		"count":6300,
		"byteOffset":12,
		"min":[-0.9995232224464417,
		-0.9997949600219727,
		-0.9922656416893005],
		"max":[0.9996342062950134,
		0.9987273216247559,
		0.994236171245575]
	},
	{
		"bufferView":3,
		"type":"VEC2",
		"componentType":5126,
		"count":6300,
		"byteOffset":24,
		"min":[0.0,
		0.0],
		"max":[1.0,
		1.0]
	},
	{
		"bufferView":4,
		"type":"SCALAR",
		"componentType":5123,
		"count":6300,
		"byteOffset":0,
		"min":[0],
		"max":[6299]
	},
	{
		"bufferView":5,
		"type":"VEC3",
		"componentType":5126,
		"count":6300,
		"byteOffset":0,
		"min":[-252.91554260253907,
		-210.99960327148438,
		-520.9231567382813],
		"max":[18.87588119506836,
		294.4089660644531,
		393.939453125]
	},
	{
		"bufferView":5,
		"type":"VEC3",
		"componentType":5126,
		"count":6300,
		"byteOffset":12,
		"min":[-0.9995232224464417,
		-0.9997949600219727,
		-0.9922656416893005],
		"max":[0.9996342062950134,
		0.9987273216247559,
		0.994236171245575]
	},
	{
		"bufferView":5,
		"type":"VEC2",
		"componentType":5126,
		"count":6300,
		"byteOffset":24,
		"min":[0.0,
		0.0],
		"max":[1.0,
		1.0]
	},
	{
		"bufferView":6,
		"type":"SCALAR",
		"componentType":5123,
		"count":6300,
		"byteOffset":0,
		"min":[0],
		"max":[6299]
	},
	{
		"bufferView":7,
		"type":"VEC3",
		"componentType":5126,
		"count":6300,
		"byteOffset":0,
		"min":[-252.91554260253907,
		-210.99960327148438,
		-520.9231567382813],
		"max":[18.87588119506836,
		294.4089660644531,
		393.939453125]
	},
	{
		"bufferView":7,
		"type":"VEC3",
		"componentType":5126,
		"count":6300,
		"byteOffset":12,
		"min":[-0.9995232224464417,
		-0.9997949600219727,
		-0.9922656416893005],
		"max":[0.9996342062950134,
		0.9987273216247559,
		0.994236171245575]
	},
	{
		"bufferView":7,
		"type":"VEC2",
		"componentType":5126,
		"count":6300,
		"byteOffset":24,
		"min":[0.0,
		0.0],
		"max":[1.0,
		1.0]
	},
	{
		"bufferView":8,
		"type":"SCALAR",
		"componentType":5123,
		"count":6300,
		"byteOffset":0,
		"min":[0],
		"max":[6299]
	},
	{
		"bufferView":9,
		"type":"VEC3",
		"componentType":5126,
		"count":6300,
		"byteOffset":0,
		"min":[-252.91554260253907,
		-210.99960327148438,
		-520.9231567382813],
		"max":[18.87588119506836,
		294.4089660644531,
		393.939453125]
	},
	{
		"bufferView":9,
		"type":"VEC3",
		"componentType":5126,
		"count":6300,
		"byteOffset":12,
		"min":[-0.9995232224464417,
		-0.9997949600219727,
		-0.9922656416893005],
		"max":[0.9996342062950134,
		0.9987273216247559,
		0.994236171245575]
	},
	{
		"bufferView":9,
		"type":"VEC2",
		"componentType":5126,
		"count":6300,
		"byteOffset":24,
		"min":[0.0,
		0.0],
		"max":[1.0,
		1.0]
	},
	{
		"bufferView":10,
		"type":"SCALAR",
		"componentType":5123,
		"count":6300,
		"byteOffset":0,
		"min":[0],
		"max":[6299]
	},
	{
		"bufferView":11,
		"type":"VEC3",
		"componentType":5126,
		"count":6300,
		"byteOffset":0,
		"min":[-252.91554260253907,
		-210.99960327148438,
		-520.9231567382813],
		"max":[18.87588119506836,
		294.4089660644531,
		393.939453125]
	},
	{
		"bufferView":11,
		"type":"VEC3",
		"componentType":5126,
		"count":6300,
		"byteOffset":12,
		"min":[-0.9995232224464417,
		-0.9997949600219727,
		-0.9922656416893005],
		"max":[0.9996342062950134,
		0.9987273216247559,
		0.994236171245575]
	},
	{
		"bufferView":11,
		"type":"VEC2",
		"componentType":5126,
		"count":6300,
		"byteOffset":24,
		"min":[0.0,
		0.0],
		"max":[1.0,
		1.0]
	},
	{
		"bufferView":12,
		"type":"SCALAR",
		"componentType":5123,
		"count":6300,
		"byteOffset":0,
		"min":[0],
		"max":[6299]
	},
	{
		"bufferView":13,
		"type":"VEC3",
		"componentType":5126,
		"count":6300,
		"byteOffset":0,
		"min":[-252.91554260253907,
		-210.99960327148438,
		-520.9231567382813],
		"max":[18.87588119506836,
		294.4089660644531,
		393.939453125]
	},
	{
		"bufferView":13,
		"type":"VEC3",
		"componentType":5126,
		"count":6300,
		"byteOffset":12,
		"min":[-0.9995232224464417,
		-0.9997949600219727,
		-0.9922656416893005],
		"max":[0.9996342062950134,
		0.9987273216247559,
		0.994236171245575]
	},
	{
		"bufferView":13,
		"type":"VEC2",
		"componentType":5126,
		"count":6300,
		"byteOffset":24,
		"min":[0.0,
		0.0],
		"max":[1.0,
		1.0]
	},
	{
		"bufferView":14,
		"type":"SCALAR",
		"componentType":5123,
		"count":6300,
		"byteOffset":0,
		"min":[0],
		"max":[6299]
	},
	{
		"bufferView":15,
		"type":"VEC3",
		"componentType":5126,
		"count":6300,
		"byteOffset":0,
		"min":[-252.91554260253907,
		-210.99960327148438,
		-520.9231567382813],
		"max":[18.87588119506836,
		294.4089660644531,
		393.939453125]
	},
	{
		"bufferView":15,
		"type":"VEC3",
		"componentType":5126,
		"count":6300,
		"byteOffset":12,
		"min":[-0.9995232224464417,
		-0.9997949600219727,
		-0.9922656416893005],
		"max":[0.9996342062950134,
		0.9987273216247559,
		0.994236171245575]
	},
	{
		"bufferView":15,
		"type":"VEC2",
		"componentType":5126,
		"count":6300,
		"byteOffset":24,
		"min":[0.0,
		0.0],
		"max":[1.0,
		1.0]
	}],
	"bufferViews":[{
		"buffer":0,
		"target":34963,
		"byteOffset":0,
		"byteLength":12600
	},
	{
		"buffer":0,
		"target":34962,
		"byteOffset":12600,
		"byteLength":201600,
		"byteStride":32
	},
	{
		"buffer":1,
		"target":34963,
		"byteOffset":0,
		"byteLength":12600
	},
	{
		"buffer":1,
		"target":34962,
		"byteOffset":12600,
		"byteLength":201600,
		"byteStride":32
	},
	{
		"buffer":2,
		"target":34963,
		"byteOffset":0,
		"byteLength":12600
	},
	{
		"buffer":2,
		"target":34962,
		"byteOffset":12600,
		"byteLength":201600,
		"byteStride":32
	},
	{
		"buffer":3,
		"target":34963,
		"byteOffset":0,
		"byteLength":12600
	},
	{
		"buffer":3,
		"target":34962,
		"byteOffset":12600,
		"byteLength":201600,
		"byteStride":32
	},
	{
		"buffer":4,
		"target":34963,
		"byteOffset":0,
		"byteLength":12600
	},
	{
		"buffer":4,
		"target":34962,
		"byteOffset":12600,
		"byteLength":201600,
		"byteStride":32
	},
	{
		"buffer":5,
		"target":34963,
		"byteOffset":0,
		"byteLength":12600
	},
	{
		"buffer":5,
		"target":34962,
		"byteOffset":12600,
		"byteLength":201600,
		"byteStride":32
	},
	{
		"buffer":6,
		"target":34963,
		"byteOffset":0,
		"byteLength":12600
	},
	{
		"buffer":6,
		"target":34962,
		"byteOffset":12600,
		"byteLength":201600,
		"byteStride":32
	},
	{
		"buffer":7,
		"target":34963,
		"byteOffset":0,
		"byteLength":12600
	},
	{
		"buffer":7,
		"target":34962,
		"byteOffset":12600,
		"byteLength":201600,
		"byteStride":32
	}],
	"buffers":[{
		"uri":"data:application/octet-stream;base64,",
		"byteLength":214200
	},
	{
		"uri":"data:application/octet-stream;base64,",
		"byteLength":214200
	},
	{
		"uri":"data:application/octet-stream;base64,",
		"byteLength":214200
	},
	{
		"uri":"data:application/octet-stream;base64,",
		"byteLength":214200
	},
	{
		"uri":"data:application/octet-stream;base64,",
		"byteLength":214200
	},
	{
		"uri":"data:application/octet-stream;base64,",
		"byteLength":214200
	},
	{
		"uri":"data:application/octet-stream;base64,",
		"byteLength":214200
	},
	{
		"uri":"data:application/octet-stream;base64,",
		"byteLength":214200
	}]
}