{
	"asset":{
		"version":"2.0",
		"generator":"Maxon Cinema 4D 2025.0.1 (#200000219)"
	},
	"scenes":[{
		"nodes":[0,
		1,
		2,
		3,
		4,
		5,
		6]
	}],
	"nodes":[{
		"translation":[235.28273010253907,
		-2499.75927734375,
		-9804.3134765625],
		"name":"Petalo1",
		"rotation":[0.0,
		0.0,
		0.0,
		-1.0],
		"scale":[1.0,
		1.0,
		1.0],
		"children":[7]
	},
	{
		"translation":[235.28273010253907,
		-2499.75927734375,
		-9804.3134765625],
		"name":"Petalo2",
		"rotation":[0.0,
		0.0,
		0.0,
		-1.0],
		"scale":[1.0,
		1.0,
		1.0],
		"children":[8]
	},
	{
		"translation":[235.28273010253907,
		-2499.75927734375,
		-9804.3134765625],
		"name":"Petalo3",
		"rotation":[0.0,
		0.0,
		0.0,
		-1.0],
		"scale":[1.0,
		1.0,
		1.0],
		"children":[9]
	},
	{
		"translation":[235.28273010253907,
		-2499.75927734375,
		-9804.3134765625],
		"name":"Petalo4",
		"rotation":[0.0,
		0.0,
		0.0,
		-1.0],
		"scale":[1.0,
		1.0,
		1.0],
		"children":[10]
	},
	{
		"translation":[235.28273010253907,
		-2499.75927734375,
		-9804.3134765625],
		"name":"Petalo5",
		"rotation":[0.0,
		0.0,
		0.0,
		-1.0],
		"scale":[1.0,
		1.0,
		1.0],
		"children":[11]
	},
	{
		"translation":[235.28273010253907,
		-2499.75927734375,
		-9804.3134765625],
		"name":"Petalo6",
		"rotation":[0.0,
		0.0,
		0.0,
		-1.0],
		"scale":[1.0,
		1.0,
		1.0],
		"children":[12]
	},
	{
		"translation":[235.28273010253907,
		-2499.75927734375,
		-9804.3134765625],
		"name":"Petalo7",
		"rotation":[0.0,
		0.0,
		0.0,
		-1.0],
		"scale":[1.0,
		1.0,
		1.0],
		"children":[13]
	},
	{
		"translation":[16.779090881347658,
		16.034528732299806,
		2.2737367544323206e-12],
		"name":"Bisel",
		"rotation":[0.0,
		0.0,
		0.0,
		-1.0],
		"scale":[1.0,
		1.0,
		1.0],
		"children":[14]
	},
	{
		"translation":[16.779090881347658,
		16.034528732299806,
		2.2737367544323206e-12],
		"name":"Bisel",
		"rotation":[0.0,
		0.0,
		0.0,
		-1.0],
		"scale":[1.0,
		1.0,
		1.0],
		"children":[15]
	},
	{
		"translation":[16.779090881347658,
		16.034528732299806,
		2.2737367544323206e-12],
		"name":"Bisel",
		"rotation":[0.0,
		0.0,
		0.0,
		-1.0],
		"scale":[1.0,
		1.0,
		1.0],
		"children":[16]
	},
	{
		"translation":[16.779090881347658,
		16.034528732299806,
		2.2737367544323206e-12],
		"name":"Bisel",
		"rotation":[0.0,
		0.0,
		0.0,
		-1.0],
		"scale":[1.0,
		1.0,
		1.0],
		"children":[17]
	},
	{
		"translation":[16.779090881347658,
		16.034528732299806,
		2.2737367544323206e-12],
		"name":"Bisel",
		"rotation":[0.0,
		0.0,
		0.0,
		-1.0],
		"scale":[1.0,
		1.0,
		1.0],
		"children":[18]
	},
	{
		"translation":[16.779090881347658,
		16.034528732299806,
		2.2737367544323206e-12],
		"name":"Bisel",
		"rotation":[0.0,
		0.0,
		0.0,
		-1.0],
		"scale":[1.0,
		1.0,
		1.0],
		"children":[19]
	},
	{
		"translation":[16.779090881347658,
		16.034528732299806,
		2.2737367544323206e-12],
		"name":"Bisel",
		"rotation":[0.0,
		0.0,
		0.0,
		-1.0],
		"scale":[1.0,
		1.0,
		1.0],
		"children":[20]
	},
	{
		"name":"Espesar",
		"children":[21]
	},
	{
		"name":"Espesar",
		"children":[22]
	},
	{
		"name":"Espesar",
		"children":[23]
	},
	{
		"name":"Espesar",
		"children":[24]
	},
	{
		"name":"Espesar",
		"children":[25]
	},
	{
		"name":"Espesar",
		"children":[26]
	},
	{
		"name":"Espesar",
		"children":[27]
	},
	{
		"translation":[-63.321041107177737,
		2666.323486328125,
		9996.892578125],
		"name":"Petalo3",
		"mesh":0,
		"rotation":[0.4338902533054352,
		0.7090728878974915,
		-0.5545626282691956,
		0.0376192107796669],
		"scale":[1.0,
		1.0,
		1.0]
	},
	{
		"translation":[-18.487279891967775,
		2681.328369140625,
		9790.578125],
		"name":"Petalo3",
		"rotation":[0.1600070297718048,
		0.6508068442344666,
		-0.691123902797699,
		-0.27054738998413088],
		"scale":[1.0,
		1.0,
		1.0],
		"children":[28]
	},
	{
		"translation":[-128.28793334960938,
		2703.65087890625,
		9613.435546875],
		"name":"Petalo3",
		"rotation":[-0.20129859447479249,
		0.483608603477478,
		-0.6652722358703613,
		-0.5319910049438477],
		"scale":[1.0,
		1.0,
		1.0],
		"children":[29]
	},
	{
		"translation":[-354.1715393066406,
		2679.89208984375,
		9578.7138671875],
		"name":"Petalo3",
		"rotation":[0.4387253522872925,
		-0.19019418954849244,
		0.5604943633079529,
		0.6761599779129028],
		"scale":[1.0,
		1.0,
		1.0],
		"children":[30]
	},
	{
		"translation":[-521.9901733398438,
		2627.338134765625,
		9725.7197265625],
		"name":"Petalo3",
		"rotation":[0.6082998514175415,
		0.16471761465072633,
		0.3376539349555969,
		0.6991632580757141],
		"scale":[1.0,
		1.0,
		1.0],
		"children":[31]
	},
	{
		"translation":[-480.8908996582031,
		2627.187255859375,
		9938.1826171875],
		"name":"Petalo3",
		"rotation":[0.6869642734527588,
		0.4074070453643799,
		-0.016482340171933175,
		0.6015213131904602],
		"scale":[1.0,
		1.0,
		1.0],
		"children":[32]
	},
	{
		"translation":[-292.0115661621094,
		2661.303466796875,
		10071.7333984375],
		"name":"Petalo3",
		"rotation":[0.5892065167427063,
		0.6195502877235413,
		-0.35747191309928896,
		0.3757750689983368],
		"scale":[1.0,
		1.0,
		1.0],
		"children":[33]
	},
	{
		"name":"Petalo3",
		"mesh":1
	},
	{
		"name":"Petalo3",
		"mesh":2
	},
	{
		"name":"Petalo3",
		"mesh":3
	},
	{
		"name":"Petalo3",
		"mesh":4
	},
	{
		"name":"Petalo3",
		"mesh":5
	},
	{
		"name":"Petalo3",
		"mesh":6
	}],
	"meshes":[{
		"name":"Petalo3",
		"primitives":[{
			"attributes":{
				"POSITION":1,
				"NORMAL":2,
				"TEXCOORD_0":3
			},
			"indices":0
		}]
	},
	{
		"name":"Petalo3",
		"primitives":[{
			"attributes":{
				"POSITION":5,
				"NORMAL":6,
				"TEXCOORD_0":7
			},
			"indices":4
		}]
	},
	{
		"name":"Petalo3",
		"primitives":[{
			"attributes":{
				"POSITION":9,
				"NORMAL":10,
				"TEXCOORD_0":11
			},
			"indices":8
		}]
	},
	{
		"name":"Petalo3",
		"primitives":[{
			"attributes":{
				"POSITION":13,
				"NORMAL":14,
				"TEXCOORD_0":15
			},
			"indices":12
		}]
	},
	{
		"name":"Petalo3",
		"primitives":[{
			"attributes":{
				"POSITION":17,
				"NORMAL":18,
				"TEXCOORD_0":19
			},
			"indices":16
		}]
	},
	{
		"name":"Petalo3",
		"primitives":[{
			"attributes":{
				"POSITION":21,
				"NORMAL":22,
				"TEXCOORD_0":23
			},
			"indices":20
		}]
	},
	{
		"name":"Petalo3",
		"primitives":[{
			"attributes":{
				"POSITION":25,
				"NORMAL":26,
				"TEXCOORD_0":27
			},
			"indices":24
		}]
	}],
	"accessors":[{
		"bufferView":0,
		"type":"SCALAR",
		"componentType":5123,
		"count":6450,
		"byteOffset":0,
		"min":[0],
		"max":[6449]
	},
	{
		"bufferView":1,
		"type":"VEC3",
		"componentType":5126,
		"count":6450,
		"byteOffset":0,
		"min":[-196.82620239257813,
		-145.26296997070313,
		-355.4421081542969],
		"max":[22.327112197875978,
		180.27992248535157,
		264.5267028808594]
	},
	{
		"bufferView":1,
		"type":"VEC3",
		"componentType":5126,
		"count":6450,
		"byteOffset":12,
		"min":[-0.9962382316589356,
		-0.9938154816627502,
		-0.9719825387001038],
		"max":[0.9998924136161804,
		0.9924866557121277,
		0.9854385852813721]
	},
	{
		"bufferView":1,
		"type":"VEC2",
		"componentType":5126,
		"count":6450,
		"byteOffset":24,
		"min":[0.0,
		0.0],
		"max":[1.0,
		1.0]
	},
	{
		"bufferView":2,
		"type":"SCALAR",
		"componentType":5123,
		"count":6576,
		"byteOffset":0,
		"min":[0],
		"max":[6575]
	},
	{
		"bufferView":3,
		"type":"VEC3",
		"componentType":5126,
		"count":6576,
		"byteOffset":0,
		"min":[-196.75692749023438,
		-139.6298828125,
		-355.43280029296877],
		"max":[22.307708740234376,
		173.2800750732422,
		264.4028625488281]
	},
	{
		"bufferView":3,
		"type":"VEC3",
		"componentType":5126,
		"count":6576,
		"byteOffset":12,
		"min":[-0.9962373971939087,
		-0.9958452582359314,
		-0.9706639051437378],
		"max":[0.9998191595077515,
		0.9949496984481812,
		0.9921426177024841]
	},
	{
		"bufferView":3,
		"type":"VEC2",
		"componentType":5126,
		"count":6576,
		"byteOffset":24,
		"min":[0.0,
		0.0],
		"max":[1.0,
		1.000000238418579]
	},
	{
		"bufferView":4,
		"type":"SCALAR",
		"componentType":5123,
		"count":6576,
		"byteOffset":0,
		"min":[0],
		"max":[6575]
	},
	{
		"bufferView":5,
		"type":"VEC3",
		"componentType":5126,
		"count":6576,
		"byteOffset":0,
		"min":[-196.719970703125,
		-136.80911254882813,
		-355.4278259277344],
		"max":[22.297531127929689,
		169.7742919921875,
		264.3877868652344]
	},
	{
		"bufferView":5,
		"type":"VEC3",
		"componentType":5126,
		"count":6576,
		"byteOffset":12,
		"min":[-0.9962356090545654,
		-0.996699333190918,
		-0.9701921939849854],
		"max":[0.9997683763504028,
		0.9959907531738281,
		0.9908936619758606]
	},
	{
		"bufferView":5,
		"type":"VEC2",
		"componentType":5126,
		"count":6576,
		"byteOffset":24,
		"min":[0.0,
		0.0],
		"max":[1.0,
		1.000000238418579]
	},
	{
		"bufferView":6,
		"type":"SCALAR",
		"componentType":5123,
		"count":6450,
		"byteOffset":0,
		"min":[0],
		"max":[6449]
	},
	{
		"bufferView":7,
		"type":"VEC3",
		"componentType":5126,
		"count":6450,
		"byteOffset":0,
		"min":[-196.85397338867188,
		-147.6644287109375,
		-355.4458312988281],
		"max":[22.33502960205078,
		183.2635955810547,
		264.5374755859375]
	},
	{
		"bufferView":7,
		"type":"VEC3",
		"componentType":5126,
		"count":6450,
		"byteOffset":12,
		"min":[-0.9962396621704102,
		-0.9941700100898743,
		-0.972545862197876],
		"max":[0.9999141097068787,
		0.9912853837013245,
		0.9839571118354797]
	},
	{
		"bufferView":7,
		"type":"VEC2",
		"componentType":5126,
		"count":6450,
		"byteOffset":24,
		"min":[0.0,
		0.0],
		"max":[1.0,
		1.0]
	},
	{
		"bufferView":8,
		"type":"SCALAR",
		"componentType":5123,
		"count":6450,
		"byteOffset":0,
		"min":[0],
		"max":[6449]
	},
	{
		"bufferView":9,
		"type":"VEC3",
		"componentType":5126,
		"count":6450,
		"byteOffset":0,
		"min":[-196.8641357421875,
		-148.56234741210938,
		-355.44720458984377],
		"max":[22.33793830871582,
		184.37911987304688,
		264.5414733886719]
	},
	{
		"bufferView":9,
		"type":"VEC3",
		"componentType":5126,
		"count":6450,
		"byteOffset":12,
		"min":[-0.9962401390075684,
		-0.994381844997406,
		-0.9727495312690735],
		"max":[0.9999207854270935,
		0.9908157587051392,
		0.9833956360816956]
	},
	{
		"bufferView":9,
		"type":"VEC2",
		"componentType":5126,
		"count":6450,
		"byteOffset":24,
		"min":[0.0,
		0.0],
		"max":[1.0,
		1.0]
	},
	{
		"bufferView":10,
		"type":"SCALAR",
		"componentType":5123,
		"count":6450,
		"byteOffset":0,
		"min":[0],
		"max":[6449]
	},
	{
		"bufferView":11,
		"type":"VEC3",
		"componentType":5126,
		"count":6450,
		"byteOffset":0,
		"min":[-196.8752899169922,
		-149.56442260742188,
		-355.4486999511719],
		"max":[22.34115219116211,
		185.62399291992188,
		264.5459289550781]
	},
	{
		"bufferView":11,
		"type":"VEC3",
		"componentType":5126,
		"count":6450,
		"byteOffset":12,
		"min":[-0.9962406158447266,
		-0.9945977926254273,
		-0.9729782938957214],
		"max":[0.9999275803565979,
		0.990276575088501,
		0.9827592372894287]
	},
	{
		"bufferView":11,
		"type":"VEC2",
		"componentType":5126,
		"count":6450,
		"byteOffset":24,
		"min":[0.0,
		0.0],
		"max":[1.0,
		1.000000238418579]
	},
	{
		"bufferView":12,
		"type":"SCALAR",
		"componentType":5123,
		"count":6300,
		"byteOffset":0,
		"min":[0],
		"max":[6299]
	},
	{
		"bufferView":13,
		"type":"VEC3",
		"componentType":5126,
		"count":6300,
		"byteOffset":0,
		"min":[-196.90028381347657,
		-151.86476135253907,
		-355.45208740234377],
		"max":[22.348400115966798,
		188.4816131591797,
		264.5560302734375]
	},
	{
		"bufferView":13,
		"type":"VEC3",
		"componentType":5126,
		"count":6300,
		"byteOffset":12,
		"min":[-0.9962419271469116,
		-0.9950157999992371,
		-0.9734774231910706],
		"max":[0.9998883605003357,
		0.9889786243438721,
		0.9812677502632141]
	},
	{
		"bufferView":13,
		"type":"VEC2",
		"componentType":5126,
		"count":6300,
		"byteOffset":24,
		"min":[0.0,
		0.0],
		"max":[1.0,
		1.0]
	}],
	"bufferViews":[{
		"buffer":0,
		"target":34963,
		"byteOffset":0,
		"byteLength":12900
	},
	{
		"buffer":0,
		"target":34962,
		"byteOffset":12900,
		"byteLength":206400,
		"byteStride":32
	},
	{
		"buffer":1,
		"target":34963,
		"byteOffset":0,
		"byteLength":13152
	},
	{
		"buffer":1,
		"target":34962,
		"byteOffset":13152,
		"byteLength":210432,
		"byteStride":32
	},
	{
		"buffer":2,
		"target":34963,
		"byteOffset":0,
		"byteLength":13152
	},
	{
		"buffer":2,
		"target":34962,
		"byteOffset":13152,
		"byteLength":210432,
		"byteStride":32
	},
	{
		"buffer":3,
		"target":34963,
		"byteOffset":0,
		"byteLength":12900
	},
	{
		"buffer":3,
		"target":34962,
		"byteOffset":12900,
		"byteLength":206400,
		"byteStride":32
	},
	{
		"buffer":4,
		"target":34963,
		"byteOffset":0,
		"byteLength":12900
	},
	{
		"buffer":4,
		"target":34962,
		"byteOffset":12900,
		"byteLength":206400,
		"byteStride":32
	},
	{
		"buffer":5,
		"target":34963,
		"byteOffset":0,
		"byteLength":12900
	},
	{
		"buffer":5,
		"target":34962,
		"byteOffset":12900,
		"byteLength":206400,
		"byteStride":32
	},
	{
		"buffer":6,
		"target":34963,
		"byteOffset":0,
		"byteLength":12600
	},
	{
		"buffer":6,
		"target":34962,
		"byteOffset":12600,
		"byteLength":201600,
		"byteStride":32
	}],
	"buffers":[{
		"uri":"data:application/octet-stream;base64,",
		"byteLength":219300
	},
	{
		"uri":"data:application/octet-stream;base64,",
		"byteLength":223584
	},
	{
		"uri":"data:application/octet-stream;base64,",
		"byteLength":223584
	},
	{
		"uri":"data:application/octet-stream;base64,",
		"byteLength":219300
	},
	{
		"uri":"data:application/octet-stream;base64,",
		"byteLength":219300
	},
	{
		"uri":"data:application/octet-stream;base64,",
		"byteLength":219300
	},
	{
		"uri":"data:application/octet-stream;base64,",
		"byteLength":214200
	}]
}